# xmcd
#
# Track frame offsets:
#	150
#	17233
#	32988
#	48381
#	60122
#	75185
#	89286
#	106704
#	120390
#	139259
#	158106
#	173424
#	191283
#	211022
#
# Disc length: 3009 seconds
#
# Revision: 2
# Processed by: cddbd v1.5.2PL0 Copyright (c) Steve Scherf et al.
# Submitted via: audiograbber 1.83.01
#
DISCID=9b0bbf0e
DTITLE=ABBA - Platinum Hits
DYEAR=2002
DGENRE=Pop-Folk
TTITLE0=ABBA - Dancing Queen
TTITLE1=ABBA - Mama Mia
TTITLE2=ABBA - S.O.S.
TTITLE3=ABBA - Waterloo
TTITLE4=ABBA - I Do I Do I Do
TTITLE5=ABBA - Hasta Manana
TTITLE6=ABBA - Thank You For The Music
TTITLE7=ABBA - Money, Money, Money
TTITLE8=ABBA - Fernando
TTITLE9=ABBA - Super Trooper
TTITLE10=ABBA - Honey Honey
TTITLE11=ABBA - Knowing Me, Knowing You
TTITLE12=ABBA - Lay All Your Love On Me
TTITLE13=ABBA - Ring Ring
EXTD=
EXTT0=
EXTT1=
EXTT2=
EXTT3=
EXTT4=
EXTT5=
EXTT6=
EXTT7=
EXTT8=
EXTT9=
EXTT10=
EXTT11=
EXTT12=
EXTT13=
PLAYORDER=
